<svg xmlns="http://www.w3.org/2000/svg" xmlns:xlink="http://www.w3.org/1999/xlink" preserveAspectRatio="xMidYMid meet" version="1.0" viewBox="-10.5 -0.5 335.5 372.3" zoomAndPan="magnify" style="fill: rgb(0, 0, 0);" original_string_length="2782" width="38.34651596073657px" height="42.4357822503121px"><g id="__id0_srmappyh7k"><path d="M191.3,244.76c-1.24,2.2-2.13,3.88-3.11,5.51c-10.81,17.93-21.41,36-32.54,53.73 c-7.06,11.25-15.41,21.66-24.84,31.04c-5.53,5.5-11.36,10.92-17.83,15.2c-32.67,21.59-72.16,4.73-91.6-25.77 c-31.91-50.08-26.35-123.07,5.12-171.98c9.73-15.12,21.16-28.88,33.17-42.19c1.17-1.29,2.31-2.61,3.55-4.01 c-0.87-1.76-1.64-3.32-2.4-4.88c-5.76-11.88-9.97-24.18-11.25-37.45C46.66,33.84,66.9,6.53,96.59,1c7.77-1.45,15.61-1.36,23.33,0.52 c17.95,4.37,27.48,18.78,24.61,37.04c-1.01,6.38-3.16,12.36-6.04,18.12c-4.46,8.92-10.08,17.08-16.47,24.69 c-7.72,9.18-15.63,18.19-23.45,27.29c-1.03,1.19-2.02,2.42-3.37,4.05c24.5,39,54.77,72.75,89.71,103.26 c1.28-1.78,2.31-3.13,3.25-4.54c7.27-10.79,15.49-20.79,25.38-29.28c23.41-20.11,49.84-24.81,78.81-14.61 c17.07,6.01,32.17,23.56,32.45,42.34c0.17,11.46-7.48,16.13-17.35,18.33c-6.16,1.38-12.42,1.06-18.51-0.67 c-2.12-0.6-4.23-1.57-6.06-2.78c-3.83-2.53-4.57-5.91-2.49-9.98c0.87-1.7,2-3.3,2.67-5.08c3.39-8.99,2.21-17.69-2.47-25.83 c-4.34-7.55-14.19-11.69-22.7-10.06c-8.56,1.64-15.86,5.9-22.5,11.28c-14.63,11.85-25.64,26.66-34.95,43.38 c1.35,1.15,2.59,2.34,3.95,3.36c9.1,6.78,18.24,13.53,27.36,20.28c11.37,8.42,21.8,17.81,29.96,29.48 c7.05,10.08,12.35,20.94,14.16,33.24c2.31,15.67-1.28,29.88-11.19,42.31c-6.06,7.6-14.02,11.95-23.74,13.03 c-13.16,1.46-25.58-0.78-36.66-8.19c-10-6.68-15.6-15.93-14.29-28.41c0.6-5.73,3.03-10.75,6.86-15.03 c3.93-4.38,8.95-5.99,14.72-5.32c4.11,0.48,4.83,1.58,3.66,5.7c-2.95,10.3-2.08,20.25,2.69,29.84c2.91,5.85,7.52,9.83,13.59,12.2 c4.16,1.62,8.28,1.62,11.87-1.09c3.41-2.57,6.97-5.25,9.55-8.59c9.42-12.18,12.3-25.73,7.28-40.63 c-2.74-8.13-6.65-15.66-12.27-22.09c-4.93-5.65-10.15-11.1-15.73-16.1C220.01,261.49,205.5,253.87,191.3,244.76z M79.26,135.65 c-1.85,0.15-4.03,1.52-6.86,4.67c-6.24,6.94-11.76,14.61-16.61,22.58c-10.04,16.48-17.12,34.77-20.66,53.75 c-5.89,31.6-1.93,64.97,11.21,94.32c4.98,11.11,11.35,21.8,20.26,30.09c3.6,3.35,7.85,6.39,12.75,6.87 c19.84,1.93,41.39-30.91,51.57-44.44c15.55-20.67,34.24-46.02,43.44-70.34c0.12-0.31-39.32-35.3-42.81-38.85 c-14.41-14.61-27.96-30.08-40.54-46.29C86.1,141.7,83.57,135.31,79.26,135.65z M82.94,84.93c0.87-0.46,1.36-0.58,1.67-0.89 c8.89-8.73,17.73-17.52,25.01-27.69c3.91-5.46,7.44-11.15,9.69-17.55c1.62-4.6,2.31-9.3,1.7-14.13c-0.59-4.62-2.55-8.52-6.41-11.33 c-3.11-2.26-6.21-2.74-9.79-0.81C98.49,15.95,93.44,20.7,89.3,26.5C76.34,44.63,76.19,64.18,82.94,84.93z" style="fill: rgb(200, 163, 144);"/></g></svg>