<svg xmlns="http://www.w3.org/2000/svg" xmlns:xlink="http://www.w3.org/1999/xlink" preserveAspectRatio="xMidYMid meet" version="1.0" viewBox="15.5 202.9 480.7 106.1" zoomAndPan="magnify" style="fill: rgb(200, 163, 144);" original_string_length="29875" width="150.71428571428575px" height="33.15714285714286px"><g id="__id2_srmappyh7k"><path d="M474.88133,273.70819c-1.27462,3.37571-2.03945,6.65001-5.42324,7.55984-3.46297,.93112-5.63097-1.15272-7.32526-4.21164-1.47561,2.96645-3.53398,5.11078-6.17103,6.75671-3.84371,2.39906-11.70458,.43506-12.55399-5.15899-.21709-1.4296-.95356-1.04045-1.79652-.66093-13.44748,6.05409-27.55259,9.05441-42.29431,8.98762-4.65349-.02108-9.18639-.97305-13.63855-2.27086-1.65551-.48258-2.41136-.2791-2.59512,1.73702-.35759,3.92436-.56016,3.94676-4.05639,2.32784-3.38272-1.56635-6.41682-3.51461-7.78181-7.24831-.34944-.95589-1.14169-.92417-1.94199-.90432-3.00646,.07457-5.66338,1.2471-8.35897,2.45277-6.15389,2.75249-10.79742,7.41317-15.63161,11.88101-1.93384,1.78726-3.87834,3.70712-6.74666,4.05389-4.46617,.53992-8.00098-1.87439-8.91264-6.27531-1.25482-6.05752-.26981-11.79532,2.77084-17.16135,.83217-1.46861,1.86472-2.82405,2.81229-4.22672,.36895-.54614,.85189-1.11359,.27807-1.75005-1.66916-1.85134-2.65544-4.13052-3.95154-6.53938-.98415,1.20043-1.23429,2.42963-1.39302,3.58149-.62697,4.54919-8.56219,10.75803-13.61925,10.2271-6.07772-.63808-11.63154-5.5416-12.48482-11.64788-.65295-4.67279-.4247-9.36488-.19546-14.05471,.04028-.82397,.3338-1.66696-.13706-2.63931-1.00669,.35213-1.43541,1.25829-1.96125,2.00163-2.13752,3.02164-3.34463,6.43668-4.15094,10.01912-.67226,2.9869-1.33132,5.97875-2.10211,8.94085-.56097,2.15578-1.48352,4.15879-2.94641,5.89752-2.41595,2.87142-5.41379,3.33674-8.58524,1.19999-1.98176-1.33523-3.45194-3.12508-4.58513-5.24044-3.42357-6.39087-3.86083-13.24512-1.9874-19.96703,1.97823-7.09811,1.3292-13.89849-.31136-20.80652-1.29455-5.45114-2.34162-10.96158-3.91074-16.34695-.20031-.68756-.37743-1.38513-.63072-2.05325-.37798-.99704-1.64094-1.70209-1.17218-2.96289,.70276-1.89016,1.46821-3.76455,2.60071-5.45605,.56133-.83838,1.16829-.41109,1.6254,.04572,1.33581,1.33495,2.69312,2.6636,3.88273,4.12441,.82088,1.008,.66331,2.29535-.0802,3.28706-1.19243,1.59056-1.09344,3.22482-.66775,5.01222,1.52378,6.39811,2.81596,12.8271,3.82218,19.34581,.91235,5.91078-.48297,11.19379-2.8487,16.24708-3.24208,6.92524-.8975,12.31859,3.69923,16.97592,2.58505,2.61912,5.12442,2.30934,7.51214-.54693,2.96747-3.54978,3.75286-7.96918,4.74532-12.27324,.85559-3.71048,2.05084-7.2734,3.84787-10.62543,1.05442-1.96682,2.33787-3.76316,4.1784-5.09811,.99991-.72524,1.65102-.5292,2.01503,.67029,.28949,.95383,.32156,1.92666,.28801,2.90513-.15864,4.62566-.30532,9.24991,.0458,13.87482,.50799,6.69105,5.69179,11.81251,12.00697,11.32736,5.03953-.38717,8.5137-3.64787,11.18437-7.67102,.94408-1.42213,.28598-3.17904-.0596-4.77399-1.14945-5.30497-2.85859-10.43672-4.97731-15.42158-1.33577-3.14269,.28185-5.73767,1.39978-8.36841,.44913-1.05689,1.13706-.0769,1.48665,.52163,1.79423,3.07185,2.62645,6.51535,3.70501,9.85402,.96156,2.97644,1.39909,6.08771,2.04843,9.14475,1.19873,5.64364,3.28489,10.79,9.50905,12.78645,1.21079,.38838,2.43226,.51247,3.66533,.32961,3.74035-.55466,5.32444-3.04733,4.05875-6.4729-2.1261-5.75416-5.08758-11.14097-7.47103-16.78378-.95423-2.25912-1.42674-4.71769-3.14485-6.66494-.67988-.77056,.06614-1.88275,.33476-2.79644,1.46129-4.97076,1.67334-4.97755,5.53162-1.47591,1.45205,1.31787,2.22949,2.62875,1.5812,4.59852-.32315,.98192,.07999,1.90512,.48889,2.81917,1.75488,3.92291,3.90245,7.67021,5.28172,11.76093,1.17973,3.49896,2.006,6.9181,.3042,10.6108-.66078,1.43378-.62377,3.28646-.97844,4.94047-1.26487,5.8987-6.26212,8.61552-11.8085,6.34926-.72245-.29519-1.41738-.65699-2.13167-.97307-.6093-.26962-1.07037-.16053-1.49474,.42907-2.61525,3.63338-4.84014,7.43169-5.34731,12.0017-.1377,1.2407-.11834,2.46302,.1978,3.68609,.97254,3.76233,4.33917,5.40746,7.87427,3.73871,3.35323-1.5829,6.04758-4.07697,8.61802-6.66974,4.47305-4.51192,9.59957-7.97769,15.53987-10.25461,1.84378-.70673,3.75527-1.0578,5.68119-1.38108,1.00282-.16832,2.07651-.0309,2.72709-1.16102,.33524-.5824,.94012-.22098,1.38412,.05183,5.98737,3.6789,12.69976,5.32918,19.45526,6.72265,4.15154,.85635,8.4366,.90769,12.66803,.62862,10.4602-.68986,20.64108-2.86132,30.59068-6.13555,2.98471-.9822,5.80447-2.31883,8.44147-4.03727,.63881-.41631,1.35045-1.10577,2.10707-.57973,.76823,.53407,.28896,1.45023,.17077,2.18698-.31026,1.93395-1.37337,3.9662,1.11044,5.35452,2.70391,1.51137,5.45686,1.88987,8.14764,.19509,2.57115-1.61944,4.65358-3.74083,5.82457-6.65989,.3616-.90144,.66345-2.45128,1.74968-2.24735,1.12744,.21167,.41432,1.67444,.5157,2.57819,.19355,1.72514,1.88869,3.5657,3.66067,3.85898,1.97565,.32699,4.3714-1.10122,5.27826-3.28144,.44693-1.07463,.67114-2.24187,.9963-3.36718,.33089-1.1449,1.01779-1.3254,1.86357-.56661,.6741,.60476,1.21855,1.35214,1.83769,2.02036,3.07797,3.32211,9.84025,3.16444,12.80695-.26292,1.16989-1.35156,1.33493-2.70698,.46756-4.29652-1.51697-2.78024-3.87666-4.71943-6.3684-6.51138-2.85577-2.05377-5.7772-4.01687-8.68569-5.99646-2.86919-1.95286-5.53217-4.12429-7.74602-6.82744-.90457-1.10447-1.90216-2.11774-3.34024-2.61646-1.10294-.38252-1.66296-1.16293-1.21554-2.44157,.40782-1.16547,.66044-2.38491,1.06063-3.55347,.69999-2.04373,1.09157-2.22113,3.12434-1.33195,1.72967,.75661,3.40284,1.64199,5.12841,2.40877,.88394,.39281,1.24902,1.04952,.8954,1.86553-.73356,1.69274,.32263,2.49098,1.4259,3.37285,3.42004,2.73389,7.24842,4.85953,10.84147,7.33464,.21456,.14783,.43805,.28277,.65257,.43067,7.2817,5.01968,9.03692,10.10857,6.42986,18.53663-.38447,1.24293-.64091,2.52516-.96669,3.7866-.96435,3.73432-3.74266,5.98829-7.53681,6.27856-4.05302,.31005-7.50362-.6341-9.76174-4.91462Z" style="fill: inherit;"/></g><g id="__id3_srmappyh7k"><path d="M239.81459,252.48196c-8.33073-.34737-16.14712,1.43095-23.96018,3.21894-.67955,.15552-1.65474,.16351-1.85555,.87113-.26057,.91819,.86352,.96822,1.38741,1.34737,1.1729,.84885,2.22355,1.82085,3.1474,2.91414,1.50682,1.78315,1.99463,3.78625,.96233,5.99072-.85607,1.82817-1.66238,3.68756-2.64577,5.44645-1.65916,2.96766-3.43895,3.86687-6.82032,3.19887-3.86399-.76333-7.24711-2.57024-9.78051-5.65935-.82405-1.0048-1.29572-.98009-2.047-.02574-1.84022,2.3376-3.98409,4.28304-6.90198,5.23193-.96507,.31385-1.40563,1.07965-1.31626,2.14179,.05439,.64624-.03596,1.30356-.00119,1.95268,.4658,8.70245-4.55198,14.0617-11.32663,18.17857-5.17485,3.14468-10.49764,6.04947-16.43239,7.62305-6.18665,1.64039-12.15348,.86622-17.56103-2.29523-4.47553-2.61655-5.98994-7.35796-6.83374-12.23472-1.25173-7.23449,.06773-14.16906,2.84101-20.82331,1.18515-2.84365,1.41697-5.64918,1.04167-8.58849-1.74189-13.64236-4.46659-27.115-7.05312-40.61123-.12362-.64504-.34609-1.24328-.72736-1.79527-1.29294-1.87186-.45985-6.8808,1.354-8.29716,.6244-.48757,1.12464-.10759,1.56845,.25801,2.17242,1.78956,4.02388,3.90276,5.82163,6.04775,.76598,.91395,.36016,2.06295-.2678,2.91327-1.7644,2.38919-1.79223,4.80265-1.22221,7.71526,1.5495,7.91725,3.33261,15.80214,4.10751,23.86617,.73808,7.68088-.77305,14.97333-3.78849,21.9124-3.16543,7.28422-1.12169,13.59148,2.82402,19.7093,1.37297,2.1288,3.55862,3.13506,5.92484,3.87836,6.44192,2.02355,12.63331,1.13738,18.66386-1.52176,4.83116-2.13026,9.57312-4.4461,13.97395-7.3979,3.09199-2.07391,3.5197-3.35019,2.50453-6.90696-.92677-3.24698-2.42925-6.18807-4.563-8.7822-1.19236-1.44961-1.63144-2.88524-.76907-4.65313,.39615-.81212,.57563-1.72763,.88456-2.58502,.8309-2.30614,1.36148-2.41108,2.93571-.60347,3.97045,4.55899,9.32779,4.72407,13.71025,.35677,1.52461-1.51934,2.72026-3.27865,3.70883-5.23149,2.05516-4.05978,5.53267-6.66964,9.52989-8.627,1.40121-.68614,2.88418-1.20392,4.31952-1.82255,.39732-.17125,.95691-.28121,.93238-.84767-.01963-.4539-.49786-.5319-.85619-.68367-5.29502-2.24291-10.70745-3.67146-16.54343-2.70658-1.997,.33016-2.55164-.42352-1.77613-2.33877,.79155-1.95475,1.1357-4.11407,3.06197-5.53947,2.0554-1.52093,4.18248-1.93366,6.62341-1.40115,3.08817,.67371,5.8373,2.21979,8.76931,3.29229,12.36665,4.52359,25.22499,5.71958,38.26608,5.66142,3.1028-.01384,3.40628,.43139,1.94764,3.20005-.4249,.80653-.89289,1.59084-1.35482,2.37729-.78673,1.33935-1.88735,1.9542-3.51631,2.00702-3.7094,.12025-7.41224,.44268-10.89168,.66829Zm-32.14158,11.28115c-.65889,0-1.04726-.01251-1.43443,.00391-.31661,.01343-.67773-.00577-.8151,.37385-.14248,.3937,.17521,.59107,.42334,.76939,2.18539,1.57063,4.54334,2.72708,7.28395,2.88235,.35575,.02015,.89394-.04978,1.05067-.28008,.35534-.52217-.26339-.76943-.55357-1.05539-1.72344-1.69842-3.74204-2.74058-5.95487-2.69403Z" style="fill: inherit;"/></g><g id="__id4_srmappyh7k"><path d="M23.71679,274.31895c.27086,1.13098-.30142,1.93042-.73173,2.7751-1.09362,2.14671-2.19794,4.288-3.28364,6.43869-.56534,1.11988-.88557,2.33252-.96447,3.56749-.14809,2.3178-.1084,4.72523,2.02564,6.1923,2.11504,1.45402,4.41654,.80841,6.49793-.26279,3.14679-1.61953,5.86274-3.88742,8.52121-6.1883,5.33805-4.62002,11.0585-8.50897,18.13034-9.92763,1.11061-.2228,1.30398-.79093,1.16701-1.79525-.82526-6.05097,1.79438-11.16809,4.52055-16.23178,.38807-.72081,1.09246-1.28503,1.69865-1.87193,1.35945-1.31619,2.75289-1.29903,4.14627-.02683,1.48829,1.35885,2.83566,2.86454,4.55582,3.97593,2.6449,1.70886,5.42561,2.38201,8.56055,1.72736,2.75884-.5761,5.43437-1.36103,7.98887-2.54217,.37531-.17353,.9527-.3123,.8776-.89149-.05643-.43527-.53905-.53216-.89103-.67087-3.15101-1.2418-6.26432-2.60071-9.4763-3.65945-2.46575-.81276-5.0476,.0127-7.57785,.04328-2.82615,.03416-3.15497-.33117-2.21782-2.96598,2.19658-6.17576,6.4291-8.01503,12.4173-5.10892,11.14497,5.40871,22.98959,7.38095,35.23854,7.59399,2.78152,.04838,2.87504,.61257,1.7608,3.10801-1.62542,3.64033-4.13432,4.89856-8.03446,4.4136-4.59742-.57166-9.29034-.80423-13.7186,.92354-3.69424,1.44139-7.24006,3.26039-10.86862,4.8739-2.26354,1.00652-4.59281,1.80922-7.01153,2.40825-3.77529,.93501-7.09642,.08333-10.12933-2.18864-.98857-.74053-1.86585-1.62959-2.85416-2.37049-.89168-.66846-1.38364-2.31337-3.01727-1.35113-1.97392,1.16269-2.71092,2.78482-2.10364,4.72323,1.29768,4.14212,4.76543,6.19993,8.11227,8.34596,1.20367,.77181,2.5162,1.37224,3.76405,2.07742,.68594,.38762,1.40105,.80663,1.27934,1.77075-.24721,1.95848-.95261,3.77696-1.8283,5.52453-.41352,.82527-1.19513,.68776-1.89023,.429-1.34282-.49991-2.6961-.98895-3.99079-1.59785-4.52999-2.13053-9.07299-1.7594-13.71575-.35985-6.68742,2.01589-11.91138,6.28057-17.10632,10.67158-2.5614,2.16503-5.05735,4.48482-8.67004,4.96483-4.14133,.55028-6.93-1.16846-8.17653-5.11871-1.19861-3.79839-.84942-7.43599,.65038-11.05724,1.56846-3.78703,3.71548-7.20815,6.3453-10.36144Z" style="fill: inherit;"/></g><g id="__id5_srmappyh7k"><path d="M221.26621,274.92113c.53497,1.22067,.2365,2.16821,.15828,3.10161-.29118,3.47496-.31339,6.88328,1.50546,10.07044,2.77301,4.85906,7.28197,6.7456,12.43477,4.58411,7.06227-2.96249,12.42682-8.24694,17.56834-13.74129,.71899-.76832,.47045-1.71509,.23789-2.60276-.66744-2.54768-1.78284-4.96122-3.24523-7.07826-2.24917-3.256-.94466-6.19394,.23015-9.20938,.37695-.96757,1.11371-1.0399,1.76186-.12395,.26284,.37146,.51923,.75365,.72553,1.15801,2.51769,4.93455,6.94632,6.04727,12.10503,5.40635,2.23288-.27742,3.2209-1.64692,3.11438-3.93086-.23658-5.07157-1.82503-9.85019-3.3262-14.63477-1.69813-5.41231-2.90971-10.95789-4.53152-16.38441-1.83124-6.12739-3.14112-12.35859-4.34831-18.62237-.03689-.19154-.04525-.41976-.15589-.56131-2.34439-2.99897-.0632-5.37305,1.08993-7.87097,.56689-1.22799,1.45097-1.15913,2.30747-.24115,1.06667,1.14327,2.01899,2.40879,3.17651,3.44795,1.53208,1.37546,1.66764,2.91444,.74347,4.55434-1.218,2.16127-1.08861,4.31533-.50319,6.61459,2.26727,8.90461,4.90912,17.70056,7.52358,26.50585,1.89416,6.37932,1.67871,12.72374-.41293,19.04035-.52962,1.59939-.8188,3.28292-1.15628,4.94046-.6497,3.19109-2.97064,5.09208-6.22399,5.02534-.58588-.01202-1.17087-.07244-1.75605-.11368-3.19666-.22521-3.52753-.29092-4.14177,2.81814-1.73041,8.75843-7.8283,14.17861-14.26807,19.37484-2.58622,2.08681-5.29519,4.06233-8.69949,4.6436-5.69043,.97164-10.32281-1.74148-12.4231-7.10154-2.02195-5.16019-1.34228-10.38905-.55056-15.62379,.16026-1.05967,.11533-2.21981,1.05994-3.4455Z" style="fill: inherit;"/></g><g id="__id6_srmappyh7k"><path d="M79.69545,276.38915c.11768,1.83142-.51248,2.88671-1.01303,3.9631-1.91466,4.11733-3.39145,8.32784-2.97112,12.9816,.17862,1.97762,.61687,3.85243,1.84439,5.47461,2.0701,2.73571,4.81472,3.0291,7.38023,.71257,1.79632-1.62201,3.35849-3.47567,4.68041-5.49428,6.18038-9.43762,14.9344-15.44496,25.37449-19.27592,3.36374-1.23433,6.6093-2.75756,9.79432-4.40823,2.27166-1.17732,3.48865-2.80707,3.47181-5.55073-.02718-4.4336-1.12297-8.6484-2.14697-12.88172-2.83218-11.70853-5.812-23.38175-8.57528-35.10621-.59759-2.53557,.9308-4.77839,2.18656-6.89679,.37985-.6408,1.07339-.18287,1.51193,.22806,1.56875,1.46993,3.1344,2.94405,4.66668,4.4517,.93647,.92143,.54973,2.08816,.04196,2.90681-1.97907,3.19091-1.16073,6.33185-.25817,9.59059,2.01648,7.28064,3.75395,14.63305,5.44429,21.99733,1.45238,6.32752,.56454,12.42103-1.52924,18.43115-.40707,1.16842-.9387,2.29612-1.30147,3.47683-1.12855,3.67312-3.71663,5.95357-6.93175,7.83055-3.78404,2.2091-7.782,3.93118-11.78199,5.65812-7.94033,3.42809-14.20121,8.83731-19.12627,15.88892-1.15407,1.65238-2.51781,3.15887-3.66324,4.81666-1.99013,2.88036-4.77003,3.83095-8.00962,3.07493-3.30255-.77073-4.68991-3.59145-5.13407-6.52275-.99651-6.57667,.06608-12.97805,2.65019-19.10976,.85121-2.01977,1.85546-3.96151,3.39495-6.23713Z" style="fill: inherit;"/></g><g id="__id7_srmappyh7k"><path d="M365.05912,269.36073c-.96459-.66953-.94069-1.22284-.94991-1.7291-.11478-6.30914-1.65419-12.39691-3.22672-18.42426-2.73192-10.47114-4.57421-21.11012-6.60746-31.71705-.08572-.44711-.0494-.98684-.2918-1.32385-2.12013-2.94772-.00571-5.42769,.85356-8.03249,.3413-1.03466,1.09919-.87092,1.63251-.22279,1.72747,2.09938,3.73087,4.10505,2.64025,7.2816-.23942,.69741-.19197,1.57262-.03438,2.3145,1.25716,5.9176,1.93969,11.9534,3.69553,17.77118,.34171,1.13218,.9895,2.33699,.21621,3.57647-.16227,.26006-.02617,.47349,.08235,.71893,2.97279,6.7237,3.80613,13.75664,3.56936,21.07422-.0972,3.00311-1.31879,5.56175-1.5795,8.71264Z" style="fill: inherit;"/></g><g id="__id8_srmappyh7k"><path d="M106.79076,218.67617c-.0625,1.44709-2.48908,4.3757-3.74532,4.78556-12.56061,4.09801-24.96505,8.5903-36.78729,14.5555-.50517,.25488-1.07365,.68885-1.61272,.19387-.47765-.43858,.00256-.95705,.07712-1.44711,.40578-2.66673,1.84678-4.22042,4.38406-5.38465,7.94067-3.64362,16.17889-6.47323,24.37705-9.42035,3.72983-1.34083,7.39475-2.87773,11.24385-3.87599,.91449-.23717,1.7866-.4088,2.06325,.59317Z" style="fill: inherit;"/></g><g id="__id9_srmappyh7k"><path d="M40.66167,257.5271c.61744-2.32821,.75087-4.33119,.89602-6.32648,.14967-2.05731,.67844-3.9724,1.88725-5.66708,1.39655-1.95786,3.78078-2.28433,5.61702-.77594,2.59671,2.13306,3.00982,4.37814,1.22268,6.35746-.64756,.7172-1.06375,.64444-1.40035-.21028-.11819-.30012-.10939-.65679-.25377-.93891-.62505-1.22132-1.50187-2.19448-2.99395-2.11942-1.46824,.07385-1.81157,1.28091-2.1092,2.4357-.73341,2.84558-.31292,5.86126-1.2476,8.67371-.38864,1.16942-.86509,2.31149-1.34387,3.4482-.17629,.41856-.47409,.84112-1.01855,.74819-.42546-.0726-.63731-.46955-.71609-.85195-.45742-2.22011-1.84282-3.99283-2.84365-5.9486-1.03065-2.01405-2.15355-2.51684-4.3529-1.96354-1.08627,.27328-1.89677-.02982-2.56737-.90037-.70637-.91699-1.01811-4.8883-.28236-5.60843,1.24179-1.21545,2.79382-.95033,4.2272-.46438,2.44128,.82765,3.86396,2.76557,4.96483,4.97178,.77486,1.55283,1.06017,3.3241,2.31465,5.14034Z" style="fill: inherit;"/></g><g id="__id10_srmappyh7k"><path d="M446.37518,250.10018c-2.80458-1.14164-5.26298-1.50203-7.8412-1.12274-.53533,.07875-1.23722,.36798-1.59481-.26675-.28295-.50217,.152-1,.40023-1.43986,.44765-.79331,.99735-1.5301,1.42915-2.33108,1.09501-2.0313,2.81093-2.78375,5.03996-2.57137,3.2645,.31104,6.34877,1.38693,9.48223,2.2457,1.22113,.33468,1.5981,1.25858,.84697,2.24497-3.76831,4.94873-7.98136,9.21805-14.91202,8.86139-.60242-.031-1.51831,.28338-1.64935-.56623-.11466-.74338,.57979-1.21748,1.29587-1.50708,1.99203-.80559,3.97981-1.62287,5.95122-2.4773,.44617-.19337,.81889-.5562,1.55174-1.06965Z" style="fill: inherit;"/></g><g id="__id11_srmappyh7k"><path d="M201.72015,215.79495c-3.23635-.60771-6.06848-.46516-8.90452-.23407-.62057,.05056-1.35069,.4423-1.79364-.23985-.40362-.62159,.03715-1.25046,.29987-1.83597,.42571-.94875,.84203-1.90363,1.31726-2.82767,.44603-.86725,1.16679-1.35637,2.17925-1.40248,3.70491-.16872,7.41377-.31719,11.1071,.10202,2.36671,.26864,2.96443,1.36701,1.75632,3.45131-2.39427,4.13073-5.27114,7.72805-10.3654,8.75544-1.93272,.38978-3.67781,1.56436-5.82314,1.4339,2.89779-2.82429,6.98353-3.94812,10.22689-7.20264Z" style="fill: inherit;"/></g><g id="__id12_srmappyh7k"><path d="M56.81753,226.04972c-2.54179-.64824-4.8365-.59302-7.14122-.41274-2.20709,.17264-2.40377-.11552-1.48847-2.187,2.18418-4.94318,2.48455-5.1517,7.91789-4.83013,1.94533,.11514,3.88522,.35664,5.82037,.5983,1.51932,.18974,2.28296,.99505,1.6178,2.55074-2.08034,4.86561-5.13652,8.73356-10.57985,10.07771-.37779,.09329-.76694,.1641-1.15441,.18865-.46588,.02951-.96438-.05901-1.21378-.471-.2965-.4898,.16818-.83173,.41936-1.18866,.62438-.88725,1.61054-1.29729,2.48876-1.84329,1.08248-.67297,2.24278-1.23903,3.31354-2.48259Z" style="fill: inherit;"/></g><g id="__id13_srmappyh7k"><path d="M161.15107,222.0919c.33402-2.01678,.68036-3.83997,.92626-5.67661,.20089-1.50032,.54868-2.95717,1.17061-4.32419,.93779-2.06124,2.90787-2.62277,4.6494-1.1752,2.68709,2.23354,3.0031,3.81939,1.27719,5.47801-.75806,.72851-1.28485,.73435-1.76917-.29149-.51849-1.09825-1.02924-2.66024-2.43303-2.39184-1.38602,.265-.89308,1.96946-1.12132,3.0329-.6139,2.86022-.68598,5.84368-1.76131,8.59477-.44869,1.14794-.82707,2.93699-2.22087,2.84124-1.02192-.0702-.73458-1.87138-1.03001-2.8916-.72327-2.49766-1.17346-5.09511-3.03304-7.10547-.73815-.79801-1.51436-1.33235-2.72429-1.14988-1.13043,.17048-2.28977,.06729-2.47448-1.47788-.2262-1.89202,.52591-3.22204,2.03062-3.49512,1.56934-.28482,2.96631,.08713,4.13246,1.23517,1.8303,1.80185,2.78833,4.05443,3.4316,6.48283,.19097,.72088,.1606,1.53316,.94938,2.31435Z" style="fill: inherit;"/></g><g id="__id14_srmappyh7k"><path d="M120.2131,302.05272c.90965-1.02381,.98803-2.07083,1.18423-3.07686,.46091-2.36339,.81236-4.77002,2.07061-6.88262,1.62007-2.72006,3.91895-3.08033,5.86034-.97473,1.15987,1.25799,.89533,3.41974-.54198,4.38886-.78869,.53181-.92793-.0944-1.24472-.6261-.96807-1.62481-2.03286-1.65256-3.11521-.13608-.53969,.75615-.79558,1.61397-.97194,2.52565-.55708,2.87969-1.21673,5.73537-2.5784,8.36773-.29316,.56675-.53674,1.35616-1.26652,1.34775-.81499-.00938-.81199-.88994-1.01951-1.46875-.65857-1.83689-1.24797-3.69922-1.93397-5.52548-1.00333-2.67099-2.20598-3.35995-4.9839-2.89773-1.36676,.22741-2.21686-.40604-2.41866-1.64851-.20703-1.27474-.77636-2.84979,1.00657-3.54448,1.8035-.70273,3.59749-.62478,5.13223,.71915,1.44493,1.26529,2.51414,2.785,3.05348,4.67268,.44385,1.55344,.87407,3.12378,1.76735,4.75953Z" style="fill: inherit;"/></g><g id="__id15_srmappyh7k"><path d="M243.00567,213.1081c-.97006,1.92389-2.12477,3.54425-4.25619,4.35682-6.26186,2.38721-12.65031,4.44763-18.76423,7.21807-1.18348,.53628-2.35313,1.1032-3.52732,1.65985-.40281,.19095-.80528,.53108-1.24241,.12328-.33579-.31327-.18901-.7266-.10964-1.10321,.40298-1.9124,1.44515-3.2396,3.29384-4.04483,4.95472-2.15812,10.00705-4.06232,15.05227-5.98921,2.49205-.95177,4.95023-1.99225,7.44366-2.94021,.81765-.31085,1.79194-.71917,2.11001,.71944Z" style="fill: inherit;"/></g><g id="__id16_srmappyh7k"><path d="M180.29142,239.88972c-.10867-1.83495,.51903-3.21998,.99414-4.59495,1.77019-5.12289,.97522-9.71572-2.57186-13.83278-.59281-.68808-1.00563-1.5502-1.6599-2.16287-2.17162-2.03347-2.41413-4.44071-1.67854-7.15088,.49199-1.81265,1.23344-2.15847,2.45442-.7818,4.24679,4.78824,7.53595,9.97646,6.58895,16.83639-.47513,3.44187-1.46239,6.72966-2.68034,9.96144-.22597,.59959-.56367,1.15325-1.44688,1.72545Z" style="fill: inherit;"/></g><g id="__id17_srmappyh7k"><path d="M170.38216,260.25101c-.33366,1.88513-1.12148,3.58497-2.19771,5.15965-.43153,.63137-.96379,.75234-1.68428,.40772-2.52286-1.20675-5.06615-2.37078-7.60138-3.55167-.11797-.05495-.27422-.08525-.34364-.17843-1.65404-2.22041,.50656-3.92547,.83806-5.87472,.21972-1.29203,1.19854-1.34348,2.25591-.89285,2.57336,1.09669,5.14664,2.19362,7.72592,3.27622,.74807,.31398,1.19588,.77568,1.00713,1.65408Z" style="fill: inherit;"/></g><g id="__id18_srmappyh7k"><path d="M114.50411,243.77251c.00368,3.85845-2.75819,5.59986-6.1014,3.79728-.8286-.44676-1.43598-.26409-2.15437,.18003-1.25972,.77875-2.45957,.68238-3.06629-.78952-.91107-2.2103-1.66324-4.48913-2.05995-6.85989-.08183-.48903-.19421-1.12545,.4045-1.38165,.63875-.27334,1.09004,.17381,1.49928,.6213,.55598,.60794,.79501,1.32096,.81649,2.13653,.01706,.6472,.00248,1.31975,.41666,1.8749,.40029,.53652,.88513,1.07579,1.62012,.77621,.63153-.2574,1.00846-.79144,.88753-1.56116-.15145-.96401-.30334-1.92981-.39618-2.90047-.05381-.56264-.19066-1.28331,.56255-1.47877,.75588-.19615,1.28308,.36641,1.50377,.97072,.35453,.97079,.53736,2.00532,.77698,3.01665,.1487,.6276,.15258,1.30592,.68401,1.78562,.44439,.40111,.9857,.87296,1.54577,.57043,.73988-.39966,.24859-1.04955-.03781-1.50865-.55281-.88619-.56575-1.85176-.56744-2.82746-.00091-.52322,.01834-1.09558,.6619-1.26321,.56451-.14704,1.02104,.13362,1.37165,.55497,1.03195,1.24015,1.61601,2.65672,1.63225,4.28613Z" style="fill: inherit;"/></g><g id="__id19_srmappyh7k"><path d="M492.52987,295.38219c-.6433,.05061-8.00499-4.56394-8.13651-5.01529-.30066-1.0319,.25267-1.90285,.61904-2.78227q1.83993-4.4159,5.9708-1.99546c1.23465,.72023,2.49307,1.40473,3.77189,2.04283,1.11851,.55812,1.51315,1.35129,1.06211,2.53532-.60328,1.58375-1.3631,3.08775-2.38128,4.44402-.25873,.34474-.6699,.57502-.90605,.77084Z" style="fill: inherit;"/></g><g id="__id20_srmappyh7k"><path d="M57.71262,297.46186c2.57806,.64175,5.1365,1.35156,7.39298,2.83938,.56985,.37572,1.03414,.98173,.7931,1.64855-.73655,2.03757-1.85038,3.87459-3.72812,5.04685-.71939,.44908-1.67057,.34027-2.41027-.19868-1.56107-1.13742-3.35871-1.6905-5.19231-2.1214-1.36025-.31966-1.76059-.98975-1.05705-2.21408,.74336-1.29361,1.50063-2.58031,2.29281-3.84436,.42488-.67792,.97562-1.23442,1.90886-1.15626Z" style="fill: inherit;"/></g><g id="__id21_srmappyh7k"><path d="M47.76447,308.72548c-.85906,.03419-1.44462-.22821-1.99742-.58996-1.64693-1.07776-3.55785-1.56568-5.32827-2.36844-1.07303-.48656-1.30867-1.15228-.77312-2.15595,.03053-.05722,.05407-.11819,.08493-.17522,3.27304-6.04954,2.69143-5.22413,7.96906-3.18835,.24205,.09337,.47904,.20014,.7168,.30433,1.37504,.60259,3.17821,.6803,3.4355,2.68385,.13373,1.04141-2.23516,4.74687-3.34733,5.28485-.28358,.13715-.61837,.16848-.76013,.2049Z" style="fill: inherit;"/></g><g id="__id22_srmappyh7k"><path d="M300.63544,216.10189c.20692-1.24838,1.28746-1.93825,2.46702-2.56347,3.7627-1.9944,7.84368-3.18066,11.80181-4.67906,3.29017-1.24554,6.57892-2.49488,9.86496-3.7513,.83365-.31875,1.71716-.58207,2.259,.35342,.57083,.98545-.29083,1.52406-.89934,2.1014-.43414,.41185-.93004,.68754-1.50205,.87601-6.49884,2.14114-12.93035,4.46917-19.2587,7.07238-1.19914,.49327-2.31712,1.18277-3.47727,1.77247-.34491,.17531-.72807,.40815-1.09351,.12977-.36425-.27747-.22554-.71029-.16194-1.31161Z" style="fill: inherit;"/></g><g id="__id23_srmappyh7k"><path d="M237.98934,277.63548c1.6971-.04865,3.52388-.5428,5.37059-.93399,.58292-.12347,1.37297-.5987,1.70708,.26269,.29328,.75609-.44111,1.19813-.96619,1.51239-3.10407,1.85778-6.4582,2.77146-10.0774,2.23328-1.97857-.29422-2.54118-1.21881-2.13967-3.16646,.47542-2.30585,1.72604-4.18193,3.34434-5.85211,.37645-.38851,1.13448-.73401,.82293-1.38473-.27571-.57597-1.04165-.38734-1.61019-.46097-.19314-.025-.40056,.01509-.58332-.03752-.75502-.21735-2.05223,.62102-2.15416-.84666-.08856-1.27511,.66522-2.27976,1.92324-2.63366,1.1368-.31981,2.34107-.24814,3.47261,.1211,2.23596,.72962,2.77874,2.30605,1.3819,4.21609-.91877,1.2563-2.03976,2.36274-3.01988,3.57692-.55773,.69096-1.45157,1.44173-1.04432,2.36558,.4339,.9842,1.60422,.96404,2.58617,1.02564,.2594,.01628,.52064,.00245,.98625,.00245Z" style="fill: inherit;"/></g><g id="__id24_srmappyh7k"><path d="M277.16928,293.9618c.26561-1.55861,.82508-2.64829,2.48455-3.19386,6.80382-2.23686,13.64478-4.37981,20.25854-7.15845,.78702-.33065,1.56482-.36216,2.11087,.39383,.60823,.84204-.17435,1.28869-.63962,1.78832-.49295,.5293-1.07386,.92061-1.77069,1.17551-7.03517,2.57354-14.06767,5.15467-21.08935,7.76477-.91966,.34185-1.55028,.49403-1.35429-.77013Z" style="fill: inherit;"/></g><g id="__id25_srmappyh7k"><path d="M320.54876,247.96595c-.19801,2.34314-.27058,5.08127-.93226,7.74985-.12192,.4916-.24486,1.22438-.84203,1.1594-.79523-.08653-.59867-.88886-.56038-1.43236,.16454-2.33446,.45539-4.65273,.26869-7.01175-.26461-3.34272-2.14239-5.72004-4.62932-7.58844-1.90923-1.4344-2.27944-3.15609-1.9682-5.28971,.2525-1.73095,.86366-2.12145,2.29076-1.07901,2.67578,1.9546,4.80535,4.39361,5.68854,7.69716,.47277,1.76842,.63399,3.58617,.6842,5.79486Z" style="fill: inherit;"/></g><g id="__id26_srmappyh7k"><path d="M200.97465,290.5162c.13636-1.24497,.30773-2.58008,.17426-3.96499-.13006-1.34948,1.86235-3.62688,3.13007-3.86382,1.41485-.26446,4.37407,1.22394,4.77118,2.49928,.496,1.59303-.85743,2.17099-1.82971,2.80287-1.14651,.74513-3.10006,.32884-3.56561,1.97482-.38173,1.34966,.79736,2.54815,1.09449,3.86886,.47203,2.09801,.82825,4.21569,.6677,6.37418-.05757,.7741-.29964,1.78334-1.15081,1.79952-1.02407,.01946-.67742-1.07572-.73191-1.70337-.19295-2.22334-.54056-4.3711-1.80744-6.29641-.65882-1.00121-.77293-2.19347-.75221-3.49094Z" style="fill: inherit;"/></g><g id="__id27_srmappyh7k"><path d="M247.50663,238.12568c-1.58337-.71173-3.3335-.60119-5.18979,.10116-1.05323,.3985-1.76835-.64061-2.17154-1.56532-.73339-1.68218-.92001-3.51316-1.27657-5.29372-.09735-.48619-.1484-1.1267,.49266-1.33229,.57052-.18296,.97004,.24782,1.32915,.63453,.61973,.66739,.64588,1.53453,.79881,2.36486,.19188,1.04193,.64564,2.02381,1.87969,1.75731,1.33292-.28785,.77816-1.39647,.6401-2.25298-.03054-.18954-.1461-.36396-.1915-.55279-.18947-.78776-.81295-1.93023,.09193-2.26393,1.10688-.40818,1.61768,.81411,1.95182,1.71981,.31332,.8493,.38156,1.78969,.70132,2.63569,.3301,.87335,1.07646,1.48851,1.99521,1.02845,.88195-.44163,.88589-1.39487,.48722-2.23311-.47189-.99223-1.20678-1.8721-1.21485-3.04774-.00542-.78777,.20811-1.31555,1.15217-.95858,1.18985,.4499,2.77647,3.83678,2.63932,5.62798-.08839,1.15434-2.05356,3.28621-3.28427,3.55242-.1892,.04092-.38781,.03831-.83088,.07826Z" style="fill: inherit;"/></g><g id="__id28_srmappyh7k"><path d="M345.70174,211.8139c.03555,3.91552-3.98072,7.72509-6.8325,7.45675-1.9586-.1843-3.08551-1.41017-2.90605-3.35872,.25436-2.76144,1.06223-5.32763,2.97563-7.44964,.8192-.90853,1.67953-1.08654,2.76-.46701,1.93274,1.10823,3.84648,2.20702,4.00293,3.81862Zm-5.30643,4.26746c1.46477-.20657,2.43586-.93598,2.57075-2.44566,.08823-.98759-2.16053-3.06843-3.07952-2.72994-1.39465,.51369-1.60797,1.96007-1.65555,3.21431-.05043,1.328,.96514,1.8388,2.16433,1.9613Z" style="fill: inherit;"/></g><g id="__id29_srmappyh7k"><path d="M153.91752,282.71104c.14657-3.78847,.3612-6.70371,1.91428-9.31485,.31-.52118,.59832-1.41474,1.37709-1.03422,.79819,.39,.20949,1.15729,.01215,1.7204-.53909,1.53841-1.03501,3.0753-1.05493,4.73071-.03271,2.71784,1.56268,3.76247,4.07574,2.67066,.54571-.23709,1.10713-1.01916,1.71362-.34973,.55795,.61583,.14686,1.35413-.22439,1.97427-1.0405,1.7381-2.04204,3.64354-4.45527,3.52892-2.27095-.10787-3.55746-.79041-3.35829-3.92615Z" style="fill: inherit;"/></g><g id="__id30_srmappyh7k"><path d="M313.86812,220.84211c.33223-.69098-.59746-2.14417,.60464-2.22937,1.27896-.09065,1.02178,1.37848,1.07515,2.31461,.05396,.94683,.12056,2.04725,1.31167,2.02844,1.28441-.02029,1.39964-1.10375,1.30184-2.16481-.05974-.64818-.0972-1.30128-.09112-1.95167,.00435-.46415,.09372-.95408,.70173-.99318,.56071-.03605,.81264,.35442,.91662,.83211,.11065,.5082,.152,1.03125,.25742,1.54084,.20513,.9916,.81992,1.61816,1.80417,1.82603,.70192,.14824,1.31198-.1484,1.73337-.68155,.62038-.7849,.05093-1.45102-.31134-2.137-.20928-.3963-.36327-.82789-.49213-1.25856-.09386-.31377-.10924-.69602,.19629-.89199,.36408-.23354,.74445-.09482,1.08646,.14957,1.29668,.92651,2.20795,3.81481,1.68165,5.34926-.46408,1.35307-2.54577,2.46326-4.43608,2.12988-1.27077-.22411-2.32689-.20236-3.52791,.43314-1.57697,.83444-3.29325-.22861-3.64833-2.06205-.13515-.69795-.11003-1.42694-.16411-2.23371Z" style="fill: inherit;"/></g><g id="__id31_srmappyh7k"><path d="M295.11783,208.31626c-.38901,2.16078-1.47363,4.47936-3.17143,6.51663-.30417,.36494-.71653,.71048-1.1708,.42717-.58509-.36488-.2824-.92808-.05895-1.38372,.60015-1.22375,1.27662-2.41167,1.83814-3.65213,.32098-.70904,.59144-1.61115-.13992-2.16309-.89437-.67496-1.35642,.26519-1.88793,.78735-.35431,.34813-.66293,.99297-1.25074,.6444-.6092-.36127-.41205-1.06004-.21-1.58951,.48194-1.26287,1.32999-2.24476,2.61657-2.72916,1.8482-.69584,3.48395,.59664,3.43505,3.14206Z" style="fill: inherit;"/></g><g id="__id32_srmappyh7k"><path d="M311.76138,289.46787c-.46776-3.28002,1.98697-5.94755,4.81705-5.36542,1.82346,.37508,2.68237,1.53896,2.37514,3.36269-.21583,1.28117-.5918,2.52783-1.50073,3.52457-.34123,.37417-.70044,.90632-1.2872,.54748-.46716-.28569-.28521-.79681-.13235-1.23256,.04286-.12223,.10542-.24041,.12913-.36607,.15618-.82813,1.04578-1.82994,.00282-2.44171-1.05497-.61883-2.11476-.03468-2.96675,.79461-.40338,.39261-.63645,.98427-1.4371,1.17641Z" style="fill: inherit;"/></g><g id="__id33_srmappyh7k"><path d="M160.66587,243.39372c.02849-2.11077,.77096-3.93074,2.2512-5.43282,.25558-.25937,.60948-.60614,.99109-.22029,.26708,.27006,.06885,.59129-.11836,.87256-.17865,.26843-.36903,.54259-.47667,.84212-.28519,.79356-.65371,1.65283-.04969,2.40836,.67778,.84781,1.55262,.3013,2.34489,.11626,.313-.07311,.60688-.22692,.91071-.34062,.44227-.1655,.91994-.28029,1.23702,.16102,.26697,.37159-.00371,.77746-.21655,1.07344-1.0412,1.44789-2.24755,2.72034-4.12254,3.00334-1.89695,.28631-2.79242-.55291-2.75109-2.48337Z" style="fill: inherit;"/></g><g id="__id34_srmappyh7k"><path d="M193.0321,247.79063c-.19204,2.17705-1.06676,4.09859-2.52034,5.76402-.34799,.3987-.79846,.82823-1.32822,.43828-.45037-.33149-.14682-.86414,.04685-1.24808,.43882-.86997,.97574-1.69051,1.41303-2.56117,.28767-.57284,.65051-1.2563,.17968-1.83147-.43251-.52838-1.08811-.15695-1.64985-.06216-.41451,.06995-.88394,.54504-1.2329,.01941-.33676-.50724-.01896-1.00736,.31678-1.41677,.76947-.93832,1.66902-1.75354,2.98502-1.4108,1.09112,.28418,1.76756,1.05592,1.78996,2.30873Z" style="fill: inherit;"/></g></svg>